<svg id="Layer_1" data-name="Layer 1" xmlns="http://www.w3.org/2000/svg" viewBox="0 0 302.4 208.8"><defs><style>.cls-1{fill:#fff200;}.cls-2{fill:#231f20;}</style></defs><title>Artboard 1</title><path class="cls-1" d="M54.86,185.36,2.91,125.45,9.32,52.19,70.79,3.34l228.6,20-15.93,182ZM23.09,100a8.19,8.19,0,1,0-7.44-8.87A8.18,8.18,0,0,0,23.09,100Z"/><path class="cls-2" d="M7.5,51.2.94,126.09l53,61.11L285.2,207.43,301.46,21.61,70.2,1.37ZM71.38,5.3,297.33,25.07,281.73,203.3,55.8,183.53,4.89,124.81l6.27-71.64Z"/><path class="cls-2" d="M17.32,84.08a10,10,0,0,0-3.57,6.85q0,.45,0,.9a10.09,10.09,0,1,0,3.61-7.75Zm5.94,14h0a6.28,6.28,0,1,1,4.58-1.44A6.24,6.24,0,0,1,23.26,98.06Zm-.33,3.8h0Z"/><path d="M218.43,114.83l7.26,15,.81.07a51.25,51.25,0,0,1,3-4.92l6.27-8.64,31.2,2.73L238.1,147.82,236,171.34,208.89,169,211,145.45,187,112.08Z"/><path d="M187.93,112.16l-2.82,32.27c-1.39,15.92-15.5,22-36.12,20.17s-33.46-10.22-32.07-26.14l2.82-32.27,26.76,2.34-2.66,30.39c-.37,4.27-.51,8,6.62,8.67s7.66-3.12,8-7.39l2.66-30.39Z"/><path d="M52.57,100.21,84.89,103c14.79,1.29,29.66,5.15,28.56,17.74-.42,4.78-4.17,9.19-11,10.12l0,.44c8.12,2.82,13,7.63,12.44,14.14-1,11.22-15.9,13.78-29.28,12.61L47.8,154.77ZM79,123.67c4.05.35,8.64.46,9-3.3.36-4.05-4.84-4.21-8.89-4.57l-1.92-.17-.68,7.81ZM74.67,144l3.14.27c4.56.4,11.15.9,11.54-3.58s-6.7-5.11-11.16-5.5L75.46,135Z"/><path d="M115,44.22l51.36,4.49-1.3,14.91-23.4-2-.46,5.21,21.38,1.87-1.24,14.18L140,81l-.47,5.35,24.21,2.12-1.3,14.9-52.17-4.56Z"/><path d="M174.05,84.67l1.35.92c4.72,3.18,10.5,6,16.88,6.51,2.73.24,7.16-.18,7.37-2.63s-3.41-3-5.91-3.58l-5.51-1.21c-10.72-2.32-19.44-7.68-18.69-16.22,1.13-13,18.28-18.75,34.89-17.29a60,60,0,0,1,23.79,6.89l-8.72,13.31a36.77,36.77,0,0,0-15.74-5.53c-2.43-.21-6,.13-6.23,2.37-.18,2,3.24,2.62,5.34,3.17l6.19,1.56c11.59,2.91,19.7,8.14,18.89,17.4-1.14,13-18.31,18-34.83,16.57a92.38,92.38,0,0,1-28.94-7.56Z"/><path d="M230.38,54.31l58.35,5.1-1.55,17.73L271.93,75.3l-3.26,37.34-27.76-2.43,3.27-37.34L228.83,72Z"/><path d="M46.83,37.95l32.31,2.83c14.79,1.29,29.66,5.15,28.56,17.74-.42,4.77-4.17,9.19-11,10.12l0,.43c8.12,2.82,13,7.63,12.44,14.14-1,11.22-15.9,13.77-29.28,12.61L42.05,92.51ZM73.25,61.41c4.05.36,8.64.46,9-3.3.35-4.05-4.84-4.21-8.89-4.57l-1.92-.17-.68,7.82ZM68.92,81.73l3.14.27c4.56.4,11.15.9,11.54-3.58s-6.7-5.11-11.16-5.5l-2.73-.24Z"/><path class="cls-2" d="M268.36,121.51a2.74,2.74,0,1,1,2.52,2.95A2.73,2.73,0,0,1,268.36,121.51Zm5,.4a2.29,2.29,0,1,0-2.46,2.11A2.26,2.26,0,0,0,273.37,121.91Zm-1.11,1.45-.5,0-.76-1.45-.59,0-.11,1.38-.43,0,.24-3.06,1.34.1a1.16,1.16,0,0,1,.73.23.75.75,0,0,1,.3.68c0,.63-.5.81-1,.79Zm-1.3-1.82c.42,0,1,.14,1.08-.46,0-.43-.33-.51-.7-.54l-.82-.06-.08,1Z"/><path class="cls-2" d="M279.18,122.65c0-.52,0-1.15.06-1.61h0c-.17.42-.35.88-.58,1.38l-.8,1.75-.37,0-.47-1.82c-.14-.54-.24-1-.31-1.48h0c0,.46-.12,1.08-.2,1.64l-.22,1.59-.46,0,.55-3.71.61,0,.5,1.85c.12.47.21.89.28,1.28h0c.13-.37.29-.76.49-1.22l.8-1.75.61,0-.06,3.74-.47,0Z"/><path class="cls-2" d="M280.64,120.71a7.29,7.29,0,0,1,1,0,2.13,2.13,0,0,1,1.47.58,1.7,1.7,0,0,1,.42,1.38,2,2,0,0,1-.65,1.41,2.32,2.32,0,0,1-1.69.41,7.1,7.1,0,0,1-.88-.11Zm.23,3.34a2.81,2.81,0,0,0,.48.06,1.43,1.43,0,0,0,1.71-1.46,1.33,1.33,0,0,0-1.4-1.55,2.71,2.71,0,0,0-.57,0Z"/></svg>